<?xml version="1.0" encoding="UTF-8" standalone="no"?>
<svg
   xmlns:dc="http://purl.org/dc/elements/1.1/"
   xmlns:cc="http://creativecommons.org/ns#"
   xmlns:rdf="http://www.w3.org/1999/02/22-rdf-syntax-ns#"
   xmlns:svg="http://www.w3.org/2000/svg"
   xmlns="http://www.w3.org/2000/svg"
   xmlns:sodipodi="http://sodipodi.sourceforge.net/DTD/sodipodi-0.dtd"
   xmlns:inkscape="http://www.inkscape.org/namespaces/inkscape"
   width="5000"
   height="3000"
   viewBox="0 0 1322.9166 793.75002"
   version="1.1"
   id="svg8"
   inkscape:version="1.0 (4035a4fb49, 2020-05-01)"
   sodipodi:docname="layersoil0002.svg">
  <defs
     id="defs2">
    <inkscape:path-effect
       lpeversion="1"
       is_visible="true"
       id="path-effect1163"
       effect="spiro" />
    <inkscape:path-effect
       simplify_just_coalesce="false"
       simplify_individual_paths="false"
       helper_size="0"
       smooth_angles="360"
       threshold="0.00172414"
       steps="1"
       lpeversion="1"
       is_visible="true"
       id="path-effect1161"
       effect="simplify" />
    <inkscape:path-effect
       lpeversion="1"
       is_visible="true"
       id="path-effect1154"
       effect="spiro" />
    <inkscape:path-effect
       simplify_just_coalesce="false"
       simplify_individual_paths="false"
       helper_size="0"
       smooth_angles="360"
       threshold="0.00172414"
       steps="1"
       lpeversion="1"
       is_visible="true"
       id="path-effect1152"
       effect="simplify" />
    <inkscape:path-effect
       simplify_just_coalesce="false"
       simplify_individual_paths="false"
       helper_size="0"
       smooth_angles="360"
       threshold="0.00172414"
       steps="1"
       lpeversion="1"
       is_visible="true"
       id="path-effect1146"
       effect="simplify" />
    <inkscape:path-effect
       lpeversion="1"
       is_visible="true"
       id="path-effect1135"
       effect="spiro" />
    <inkscape:path-effect
       simplify_just_coalesce="false"
       simplify_individual_paths="false"
       helper_size="0"
       smooth_angles="360"
       threshold="0.00172414"
       steps="1"
       lpeversion="1"
       is_visible="true"
       id="path-effect1133"
       effect="simplify" />
    <inkscape:path-effect
       lpeversion="1"
       is_visible="true"
       id="path-effect1122"
       effect="spiro" />
    <inkscape:path-effect
       simplify_just_coalesce="false"
       simplify_individual_paths="false"
       helper_size="0"
       smooth_angles="360"
       threshold="0.00172414"
       steps="1"
       lpeversion="1"
       is_visible="true"
       id="path-effect1120"
       effect="simplify" />
    <inkscape:path-effect
       lpeversion="1"
       is_visible="true"
       id="path-effect1113"
       effect="spiro" />
    <inkscape:path-effect
       simplify_just_coalesce="false"
       simplify_individual_paths="false"
       helper_size="0"
       smooth_angles="360"
       threshold="0.00172414"
       steps="1"
       lpeversion="1"
       is_visible="true"
       id="path-effect1111"
       effect="simplify" />
    <inkscape:path-effect
       lpeversion="1"
       is_visible="true"
       id="path-effect1104"
       effect="spiro" />
    <inkscape:path-effect
       simplify_just_coalesce="false"
       simplify_individual_paths="false"
       helper_size="0"
       smooth_angles="360"
       threshold="0.00172414"
       steps="1"
       lpeversion="1"
       is_visible="true"
       id="path-effect1102"
       effect="simplify" />
    <inkscape:path-effect
       lpeversion="1"
       is_visible="true"
       id="path-effect1091"
       effect="spiro" />
    <inkscape:path-effect
       simplify_just_coalesce="false"
       simplify_individual_paths="false"
       helper_size="0"
       smooth_angles="360"
       threshold="0.00172414"
       steps="1"
       lpeversion="1"
       is_visible="true"
       id="path-effect1089"
       effect="simplify" />
    <inkscape:path-effect
       simplify_just_coalesce="false"
       simplify_individual_paths="false"
       helper_size="0"
       smooth_angles="360"
       threshold="0.00172414"
       steps="1"
       lpeversion="1"
       is_visible="true"
       id="path-effect1083"
       effect="simplify" />
    <inkscape:path-effect
       lpeversion="1"
       is_visible="true"
       id="path-effect1072"
       effect="spiro" />
    <inkscape:path-effect
       simplify_just_coalesce="false"
       simplify_individual_paths="false"
       helper_size="0"
       smooth_angles="360"
       threshold="0.00172414"
       steps="1"
       lpeversion="1"
       is_visible="true"
       id="path-effect1070"
       effect="simplify" />
    <inkscape:path-effect
       lpeversion="1"
       is_visible="true"
       id="path-effect1063"
       effect="spiro" />
    <inkscape:path-effect
       simplify_just_coalesce="false"
       simplify_individual_paths="false"
       helper_size="0"
       smooth_angles="360"
       threshold="0.00172414"
       steps="1"
       lpeversion="1"
       is_visible="true"
       id="path-effect1061"
       effect="simplify" />
    <inkscape:path-effect
       lpeversion="1"
       is_visible="true"
       id="path-effect1050"
       effect="spiro" />
    <inkscape:path-effect
       simplify_just_coalesce="false"
       simplify_individual_paths="false"
       helper_size="0"
       smooth_angles="360"
       threshold="0.00172414"
       steps="1"
       lpeversion="1"
       is_visible="true"
       id="path-effect1048"
       effect="simplify" />
    <inkscape:path-effect
       simplify_just_coalesce="false"
       simplify_individual_paths="false"
       helper_size="0"
       smooth_angles="360"
       threshold="0.00172414"
       steps="1"
       lpeversion="1"
       is_visible="true"
       id="path-effect1042"
       effect="simplify" />
    <inkscape:path-effect
       simplify_just_coalesce="false"
       simplify_individual_paths="false"
       helper_size="0"
       smooth_angles="360"
       threshold="0.00172414"
       steps="1"
       lpeversion="1"
       is_visible="true"
       id="path-effect1036"
       effect="simplify" />
    <inkscape:path-effect
       lpeversion="1"
       is_visible="true"
       id="path-effect1025"
       effect="spiro" />
    <inkscape:path-effect
       simplify_just_coalesce="false"
       simplify_individual_paths="false"
       helper_size="0"
       smooth_angles="360"
       threshold="0.00172414"
       steps="1"
       lpeversion="1"
       is_visible="true"
       id="path-effect1023"
       effect="simplify" />
    <inkscape:path-effect
       simplify_just_coalesce="false"
       simplify_individual_paths="false"
       helper_size="0"
       smooth_angles="360"
       threshold="0.00172414"
       steps="1"
       lpeversion="1"
       is_visible="true"
       id="path-effect1017"
       effect="simplify" />
    <inkscape:path-effect
       simplify_just_coalesce="false"
       simplify_individual_paths="false"
       helper_size="0"
       smooth_angles="360"
       threshold="0.00172414"
       steps="1"
       lpeversion="1"
       is_visible="true"
       id="path-effect1011"
       effect="simplify" />
    <inkscape:path-effect
       simplify_just_coalesce="false"
       simplify_individual_paths="false"
       helper_size="0"
       smooth_angles="360"
       threshold="0.00172414"
       steps="1"
       lpeversion="1"
       is_visible="true"
       id="path-effect1005"
       effect="simplify" />
    <inkscape:path-effect
       simplify_just_coalesce="false"
       simplify_individual_paths="false"
       helper_size="0"
       smooth_angles="360"
       threshold="0.00172414"
       steps="1"
       lpeversion="1"
       is_visible="true"
       id="path-effect999"
       effect="simplify" />
    <inkscape:path-effect
       simplify_just_coalesce="false"
       simplify_individual_paths="false"
       helper_size="0"
       smooth_angles="360"
       threshold="0.00172414"
       steps="1"
       lpeversion="1"
       is_visible="true"
       id="path-effect993"
       effect="simplify" />
    <inkscape:path-effect
       simplify_just_coalesce="false"
       simplify_individual_paths="false"
       helper_size="0"
       smooth_angles="360"
       threshold="0.00172414"
       steps="1"
       lpeversion="1"
       is_visible="true"
       id="path-effect987"
       effect="simplify" />
    <inkscape:path-effect
       simplify_just_coalesce="false"
       simplify_individual_paths="false"
       helper_size="0"
       smooth_angles="360"
       threshold="0.00172414"
       steps="1"
       lpeversion="1"
       is_visible="true"
       id="path-effect981"
       effect="simplify" />
    <inkscape:path-effect
       simplify_just_coalesce="false"
       simplify_individual_paths="false"
       helper_size="0"
       smooth_angles="360"
       threshold="0.00172414"
       steps="1"
       lpeversion="1"
       is_visible="true"
       id="path-effect975"
       effect="simplify" />
    <inkscape:path-effect
       lpeversion="1"
       is_visible="true"
       id="path-effect971"
       effect="spiro" />
    <inkscape:path-effect
       simplify_just_coalesce="false"
       simplify_individual_paths="false"
       helper_size="0"
       smooth_angles="360"
       threshold="0.00172414"
       steps="1"
       lpeversion="1"
       is_visible="true"
       id="path-effect969"
       effect="simplify" />
    <inkscape:path-effect
       effect="spiro"
       id="path-effect1874"
       is_visible="true"
       lpeversion="1" />
    <inkscape:path-effect
       effect="spiro"
       id="path-effect1863"
       is_visible="true"
       lpeversion="1" />
    <inkscape:path-effect
       effect="spiro"
       id="path-effect1856"
       is_visible="true"
       lpeversion="1" />
    <inkscape:path-effect
       effect="spiro"
       id="path-effect1849"
       is_visible="true"
       lpeversion="1" />
    <inkscape:path-effect
       effect="spiro"
       id="path-effect1842"
       is_visible="true"
       lpeversion="1" />
    <inkscape:path-effect
       effect="spiro"
       id="path-effect1835"
       is_visible="true"
       lpeversion="1" />
    <inkscape:path-effect
       effect="spiro"
       id="path-effect1828"
       is_visible="true"
       lpeversion="1" />
    <inkscape:path-effect
       effect="spiro"
       id="path-effect1821"
       is_visible="true"
       lpeversion="1" />
    <inkscape:path-effect
       lpeversion="1"
       is_visible="true"
       id="path-effect2706"
       effect="spiro" />
    <inkscape:path-effect
       lpeversion="1"
       is_visible="true"
       id="path-effect2694"
       effect="spiro" />
    <inkscape:path-effect
       lpeversion="1"
       is_visible="true"
       id="path-effect2686"
       effect="spiro" />
    <inkscape:path-effect
       lpeversion="1"
       is_visible="true"
       id="path-effect2678"
       effect="spiro" />
    <inkscape:path-effect
       lpeversion="1"
       is_visible="true"
       id="path-effect2670"
       effect="spiro" />
    <inkscape:path-effect
       lpeversion="1"
       is_visible="true"
       id="path-effect2658"
       effect="spiro" />
    <inkscape:path-effect
       only_selected="false"
       apply_with_weight="true"
       apply_no_weight="true"
       helper_size="0"
       steps="2"
       weight="33.333333"
       lpeversion="1"
       is_visible="true"
       id="path-effect2654"
       effect="bspline" />
    <inkscape:path-effect
       effect="bspline"
       id="path-effect905"
       is_visible="true"
       lpeversion="1"
       weight="33.333333"
       steps="2"
       helper_size="0"
       apply_no_weight="true"
       apply_with_weight="true"
       only_selected="false" />
    <inkscape:path-effect
       effect="bspline"
       id="path-effect897"
       is_visible="true"
       lpeversion="1"
       weight="33.333333"
       steps="2"
       helper_size="0"
       apply_no_weight="true"
       apply_with_weight="true"
       only_selected="false" />
    <inkscape:path-effect
       effect="bspline"
       id="path-effect889"
       is_visible="true"
       lpeversion="1"
       weight="33.333333"
       steps="2"
       helper_size="0"
       apply_no_weight="true"
       apply_with_weight="true"
       only_selected="false" />
    <inkscape:path-effect
       effect="bspline"
       id="path-effect877"
       is_visible="true"
       lpeversion="1"
       weight="33.333333"
       steps="2"
       helper_size="0"
       apply_no_weight="true"
       apply_with_weight="true"
       only_selected="false" />
    <inkscape:path-effect
       effect="bspline"
       id="path-effect865"
       is_visible="true"
       lpeversion="1"
       weight="33.333333"
       steps="2"
       helper_size="0"
       apply_no_weight="true"
       apply_with_weight="true"
       only_selected="false" />
    <inkscape:path-effect
       only_selected="false"
       apply_with_weight="true"
       apply_no_weight="true"
       helper_size="0"
       steps="2"
       weight="33.333333"
       lpeversion="1"
       is_visible="true"
       id="path-effect861"
       effect="bspline" />
    <inkscape:path-effect
       effect="bspline"
       id="path-effect857"
       is_visible="true"
       lpeversion="1"
       weight="33.333333"
       steps="2"
       helper_size="0"
       apply_no_weight="true"
       apply_with_weight="true"
       only_selected="false" />
    <inkscape:path-effect
       effect="bspline"
       id="path-effect847"
       is_visible="true"
       lpeversion="1"
       weight="33.333333"
       steps="2"
       helper_size="0"
       apply_no_weight="true"
       apply_with_weight="true"
       only_selected="false" />
    <inkscape:path-effect
       only_selected="false"
       apply_with_weight="true"
       apply_no_weight="true"
       helper_size="0"
       steps="2"
       weight="33.333333"
       lpeversion="1"
       is_visible="true"
       id="path-effect843"
       effect="bspline" />
    <inkscape:path-effect
       effect="bspline"
       id="path-effect839"
       is_visible="true"
       lpeversion="1"
       weight="33.333333"
       steps="2"
       helper_size="0"
       apply_no_weight="true"
       apply_with_weight="true"
       only_selected="false" />
    <inkscape:path-effect
       effect="bspline"
       id="path-effect835"
       is_visible="true"
       lpeversion="1"
       weight="33.333333"
       steps="2"
       helper_size="0"
       apply_no_weight="true"
       apply_with_weight="true"
       only_selected="false" />
  </defs>
  <sodipodi:namedview
     id="base"
     pagecolor="#ffffff"
     bordercolor="#666666"
     borderopacity="1.0"
     inkscape:pageopacity="0.0"
     inkscape:pageshadow="2"
     inkscape:zoom="0.1234"
     inkscape:cx="1416.8616"
     inkscape:cy="1881.8233"
     inkscape:document-units="px"
     inkscape:current-layer="layer1"
     inkscape:document-rotation="0"
     showgrid="false"
     units="px"
     inkscape:window-width="1920"
     inkscape:window-height="1009"
     inkscape:window-x="-8"
     inkscape:window-y="-8"
     inkscape:window-maximized="1" />
  <metadata
     id="metadata5">
    <rdf:RDF>
      <cc:Work
         rdf:about="">
        <dc:format>image/svg+xml</dc:format>
        <dc:type
           rdf:resource="http://purl.org/dc/dcmitype/StillImage" />
        <dc:title></dc:title>
      </cc:Work>
    </rdf:RDF>
  </metadata>
  <g
     inkscape:label="Layer 1"
     inkscape:groupmode="layer"
     id="layer1">
    <path
       inkscape:label="1"
       d="M 0,-9.9999999e-6 H 1322.9166 V 793.74999 H 0 Z"
       style="fill:#628dd1;fill-opacity:1;fill-rule:evenodd;stroke:none;stroke-width:29.0131;stroke-linejoin:round;paint-order:stroke fill markers"
       id="rect2650" />
    <path
       inkscape:label="2"
       d="M 135.02225,54.105225 C 89.994585,54.135384 44.968051,55.312203 0,57.626972 V 793.74999 H 1322.9167 V 59.338495 c -21.4541,0.524999 -42.8949,1.480844 -64.2917,2.80448 -46.6397,2.885199 -93.2055,7.49594 -139.9295,8.169529 C 1018.7808,71.752906 918.86457,55.182462 819.21148,62.551219 762.09842,66.774395 705.75685,78.826822 648.60537,82.493672 566.69352,87.749151 484.81233,75.712666 403.14594,67.480634 314.07309,58.502028 224.54633,54.045262 135.02225,54.105225 Z"
       style="fill:#4175c8;stroke:none;stroke-width:0.264583px;stroke-linecap:butt;stroke-linejoin:miter;stroke-opacity:1;fill-opacity:1"
       id="path1159" />
    <path
       inkscape:label="3"
       d="m 1322.9167,120.78488 c -33.0943,2.92362 -66.1596,6.78116 -99.0157,10.45 -38.7401,4.32587 -77.5771,8.37951 -116.5546,8.88266 -52.5757,0.6787 -105.1248,-5.10667 -157.67208,-3.25044 -89.93055,3.17678 -178.13597,28.66063 -268.11748,29.62093 -23.14644,0.24702 -46.2947,-1.13525 -69.30689,-3.63699 -32.1519,-3.49535 -64.02078,-9.16936 -96.00395,-13.96917 -52.79279,-7.92278 -106.41568,-13.47155 -159.5174,-7.98918 -32.78333,3.38464 -66.13001,10.9268 -98.27771,3.66541 -21.08213,-4.76194 -40.45251,-15.70206 -61.68719,-19.72954 -17.65315,-3.3482 -35.88832,-1.77109 -53.59621,1.27434 -17.7079,3.04542 -35.15788,7.54265 -52.947675,10.06605 C 60.316498,140.41059 30.184981,139.0069 0,136.54722 v 657.20277 h 1322.9167 z"
       style="fill:#3465b2;stroke:none;stroke-width:0.264583px;stroke-linecap:butt;stroke-linejoin:miter;stroke-opacity:1;fill-opacity:1"
       id="path1150" />
    <path
       inkscape:label="4"
       d="M 0,187.2759 V 793.74999 H 1322.9167 V 194.11115 c -37.2313,3.93434 -74.4985,7.84042 -111.7953,8.86199 -47.112,1.29041 -94.2149,-2.02942 -141.226,-5.37022 -76.78187,-5.45643 -154.01107,-10.97037 -230.604,-3.30522 -29.23228,2.92546 -58.23538,7.76013 -87.35489,11.65097 -68.01813,9.08832 -136.82358,13.02415 -205.35643,9.5157 -57.04181,-2.92019 -113.69442,-10.97725 -170.63765,-15.42284 -50.4163,-3.93602 -101.00537,-5.03688 -151.55975,-6.28178 C 149.57966,191.91771 74.78464,189.75454 0,187.2759 Z"
       style="fill:#2f5da3;stroke:none;stroke-width:0.264583px;stroke-linecap:butt;stroke-linejoin:miter;stroke-opacity:1;fill-opacity:1"
       id="path1131" />
    <path
       inkscape:label="5"
       d="M 42.232048,214.6918 C 28.148594,214.70651 14.065536,215.0714 0,215.78528 V 793.74999 H 1322.9167 V 247.55801 c -73.0141,-0.0983 -146.1283,-1.45222 -217.717,11.7476 -24.2678,4.4746 -48.2656,10.61016 -72.7852,13.39196 -78.67639,8.92598 -156.87077,-16.99966 -235.90395,-21.83743 -70.33205,-4.30516 -140.44711,8.13418 -210.55563,15.20009 -89.02676,8.97263 -179.6338,9.21409 -267.22038,-9.08522 -30.17131,-6.30365 -59.84753,-14.77472 -89.90613,-21.59558 C 167.66482,221.50026 104.94714,214.62629 42.232048,214.6918 Z"
       style="fill:#2a5391;stroke:none;stroke-width:0.264583px;stroke-linecap:butt;stroke-linejoin:miter;stroke-opacity:1;fill-opacity:1"
       id="path1118" />
    <path
       inkscape:label="6"
       d="M 6.2233926,280.40769 C 4.1509484,280.40028 2.0764778,280.42092 0,280.46402 V 793.74999 H 1322.9167 V 325.00445 c -62.7752,1.60407 -125.799,-0.36965 -188.6206,-1.24748 -57.1106,-0.79804 -114.3204,-0.67694 -171.21897,4.30466 -80.64476,7.06062 -160.98234,23.88161 -241.79043,19.03603 -46.33873,-2.77862 -91.92284,-12.65063 -137.28152,-22.52937 -76.04667,-16.56231 -152.85085,-33.31414 -230.67687,-32.59646 -36.48734,0.33647 -72.82471,4.51972 -109.00627,9.24544 -47.45039,6.19755 -96.35508,13.25772 -142.56236,0.81442 -17.996831,-4.84643 -35.148062,-12.5671 -53.269617,-16.92402 -13.939486,-3.35145 -28.053109,-4.64894 -42.2666704,-4.69998 z"
       style="fill:#24497f;stroke:none;stroke-width:0.264583px;stroke-linecap:butt;stroke-linejoin:miter;stroke-opacity:1;fill-opacity:1"
       id="path1109" />
    <path
       inkscape:label="7"
       d="m 199.29016,319.80475 c -48.48339,-0.0259 -97.22592,2.08275 -145.534267,2.42311 C 35.836685,322.35412 17.915748,322.22561 0,321.85168 V 793.74999 H 1322.9167 V 416.54976 c -28.2,-1.69082 -56.4351,-4.73671 -84.5628,-7.00165 -143.0756,-11.52085 -286.93508,-2.66086 -430.1371,7.16444 -41.96882,2.87954 -84.36028,5.82526 -125.91738,-0.70797 -59.77969,-9.39802 -115.15627,-37.98795 -174.78467,-48.30249 -15.3946,-2.66295 -30.99456,-4.09149 -46.31603,-7.14735 -22.37033,-4.46177 -43.89207,-12.33866 -65.83423,-18.57407 -63.68061,-18.09641 -129.63414,-22.14036 -196.07433,-22.17592 z"
       style="fill:#1d3a66;stroke:none;stroke-width:0.264583px;stroke-linecap:butt;stroke-linejoin:miter;stroke-opacity:1;fill-opacity:1"
       id="path1100" />
    <path
       inkscape:label="8"
       d="M 0,359.8509 V 793.74999 H 1322.9167 V 506.91375 c -27.4512,1.1575 -55.1363,-0.36383 -82.4948,-3.06131 -53.3914,-5.26428 -106.9991,-14.90033 -160.3457,-9.19996 -26.9789,2.88285 -53.3812,9.65187 -80.17447,13.92888 -64.40344,10.28068 -130.17309,6.05113 -195.14155,0.34158 -70.28596,-6.17688 -141.98166,-14.48377 -205.63189,-44.92905 -49.24195,-23.55348 -92.04397,-59.65378 -142.75771,-79.84422 -18.34835,-7.30496 -37.58301,-12.4402 -57.17789,-14.90297 -46.31576,-5.82115 -93.04776,3.32454 -138.90625,12.04423 -45.8585,8.71972 -92.86713,17.07401 -138.96051,9.69605 C 95.947697,386.92481 71.598138,378.19274 46.98938,370.7789 31.60341,366.14361 15.890307,361.99355 0,359.8509 Z"
       style="fill:#173053;stroke:none;stroke-width:0.264583px;stroke-linecap:butt;stroke-linejoin:miter;stroke-opacity:1;fill-opacity:1"
       id="path1087" />
    <path
       inkscape:label="9"
       d="m 321.10185,408.87221 c -1.78925,-0.005 -3.57772,0.005 -5.36453,0.0279 -28.58889,0.36517 -57.01703,4.02195 -85.47437,6.78563 C 153.76173,423.11526 76.485572,424.07001 0,416.89289 v 376.8571 H 1322.9167 V 583.8703 c -17.4175,0.78716 -34.8519,3.06623 -52.1152,5.57381 -31.3593,4.5551 -62.8881,9.8678 -94.5379,8.3044 -46.3246,-2.28827 -91.4742,-19.25375 -137.8123,-17.25631 -25.5875,1.103 -50.55361,7.97253 -75.95813,11.2205 -38.82163,4.96338 -78.22798,1.42661 -117.28016,4.01114 -24.57135,1.62616 -48.99665,5.67523 -73.62134,5.81358 -24.62472,0.13838 -50.0442,-3.96004 -70.77245,-17.25422 -18.23778,-11.69693 -31.91073,-29.88003 -51.09972,-39.94073 -13.60998,-7.13565 -29.11133,-9.70002 -44.38023,-11.43495 -15.26891,-1.73495 -30.74913,-2.76624 -45.46494,-7.19285 -26.31334,-7.9152 -48.15943,-26.00185 -69.21177,-43.66091 -27.94016,-23.43663 -56.56545,-47.30297 -90.63892,-60.30018 -25.04416,-9.55299 -52.08317,-12.81221 -78.92179,-12.88137 z"
       style="fill:#132743;stroke:none;stroke-width:0.264583px;stroke-linecap:butt;stroke-linejoin:miter;stroke-opacity:1;fill-opacity:1"
       id="path1068" />
    <path
       inkscape:label="10"
       d="m 328.6466,464.72977 c -25.5497,0.0595 -51.24315,3.20119 -76.5793,6.90036 -50.08674,7.31282 -100.16322,16.80181 -150.78046,16.57003 C 68.59852,488.05049 36.085033,483.84258 3.5098632,481.12103 2.340006,481.02329 1.1701709,480.92812 0,480.83422 v 312.91577 h 1322.9167 v -103.9177 c -28.2411,-3.50628 -56.5003,-6.86855 -84.7716,-10.11203 -31.3262,-3.59396 -62.6954,-7.04945 -94.1948,-8.47701 -48.1095,-2.1803 -96.3513,0.3824 -144.22012,5.66013 C 912.35029,686.53733 824.115,705.20697 737.36067,691.00329 679.55003,681.53837 625.09952,657.80633 572.54851,631.92112 546.67274,619.1754 520.08764,605.01587 503.33618,581.534 492.21493,565.9444 486.22243,547.26942 476.04121,531.05026 465.1508,513.70131 449.58621,499.49322 431.92194,489.12208 414.25767,478.75094 394.53105,472.13562 374.373,468.49699 359.25447,465.768 343.97643,464.69405 328.6466,464.72977 Z"
       style="fill:#0f2036;stroke:none;stroke-width:0.264583px;stroke-linecap:butt;stroke-linejoin:miter;stroke-opacity:1;fill-opacity:1"
       id="path1059" />
    <path
       inkscape:label="11"
       d="m 0,508.02066 v 285.72933 h 1322.9167 v -25.55864 c -6.3848,-1.0754 -12.75,-2.27722 -19.0909,-3.6153 -34.2715,-7.23204 -67.6209,-18.29204 -101.7163,-26.31363 -66.9948,-15.76181 -137.2142,-19.60816 -204.86651,-6.96288 -26.56843,4.96607 -52.60258,12.42634 -79.00345,18.21749 -69.6723,15.28291 -142.82129,18.7402 -212.13484,1.90479 -30.6419,-7.44252 -60.19787,-18.73994 -89.47827,-30.44362 -41.99822,-16.78713 -83.83646,-34.57784 -122.24422,-58.4631 -32.55627,-20.24629 -62.79214,-45.16157 -84.72297,-76.60772 -7.57113,-10.85604 -14.10478,-22.41553 -21.85604,-33.14372 -7.75126,-10.72817 -16.90687,-20.75485 -28.41792,-27.28722 -10.44784,-5.92902 -22.43023,-8.73464 -34.39736,-9.78287 -11.96713,-1.04822 -24.00904,-0.41002 -36.00919,0.1447 C 192.6271,520.29238 95.71207,519.26857 0,508.02066 Z"
       style="fill:#0b1728;stroke:none;stroke-width:0.264583px;stroke-linecap:butt;stroke-linejoin:miter;stroke-opacity:1"
       id="path1046" />
  </g>
</svg>
